# File created by Blade
# Date/Time:  Wed Sep 24 19:53:44 2014
# Frame Rate: 120.000 fps
#------------------------------------------------------
:FULLY-SPECIFIED
:DEGREES
3200
root -6.037390 32.880707 -4.545458 10.300761 12.426038 -0.541798
Spine -13.175280 18.892879 0.107836
Head -8.080837 -7.614223 10.936059
LeftShoulder -20.359217 22.376470 17.652964
LeftArm 7.704476 -56.520867 -49.206760
LeftForeArm -74.154849 -0.000000 6.743793
LeftHand -22.429880 -0.000000 -5.932332
LeftHandThumb1 -26.253704 0.000000 33.147579
RightShoulder -21.447300 10.971901 -19.307563
RightArm -13.951374 -6.722083 76.154442
RightForeArm -22.370235 -0.000000 19.858284
RightHand -8.444570 0.000000 8.610525
RightHandThumb1 -24.326973 -0.000000 -32.862282
LeftUpLeg -6.321552 -0.984131 5.327473
LeftLeg -2.024909 -0.000000 0.000000
LeftFoot -8.067282 3.399965 -18.949892
LeftToeBase 11.929528 -0.000000 -0.000000
RightUpLeg -4.817500 -15.344959 -1.970487
RightLeg 1.844557 -0.000000 -0.000000
RightFoot -7.151513 -6.520936 -12.184384
RightToeBase -0.565190 -0.000000 0.000000
3201
root -6.041744 32.880584 -4.538406 10.225051 12.432633 -0.564845
Spine -13.163631 18.866991 0.089804
Head -8.073483 -7.641414 11.019299
LeftShoulder -20.332789 22.424757 17.690965
LeftArm 7.602514 -56.551939 -48.824271
LeftForeArm -73.882915 0.000000 6.907834
LeftHand -22.243126 -0.000000 -6.195275
LeftHandThumb1 -26.253704 0.000000 33.147579
RightShoulder -21.450347 10.970339 -19.256850
RightArm -14.009374 -6.606548 76.047114
RightForeArm -22.600309 0.000000 20.071301
RightHand -8.390487 -0.000000 8.828303
RightHandThumb1 -24.326973 -0.000000 -32.862282
LeftUpLeg -6.267897 -0.923563 5.349529
LeftLeg -1.969735 -0.000000 0.000000
LeftFoot -8.088750 3.316990 -18.886282
LeftToeBase 11.926344 -0.000000 -0.000000
RightUpLeg -4.770837 -15.290102 -1.961780
RightLeg 1.926381 -0.000000 -0.000000
RightFoot -7.174408 -6.584247 -12.171930
RightToeBase -0.610686 -0.000000 0.000000
3202
root -6.045750 32.880553 -4.530343 10.136522 12.456972 -0.592817
Spine -13.138894 18.853582 0.091817
Head -8.034214 -7.678679 11.057905
LeftShoulder -20.264445 22.433967 17.746181
LeftArm 7.433529 -56.514303 -48.356132
LeftForeArm -73.683448 -0.000000 7.090970
LeftHand -22.043575 -0.000000 -6.205233
LeftHandThumb1 -26.253704 0.000000 33.147579
RightShoulder -21.498393 10.937928 -19.216198
RightArm -14.023855 -6.478841 75.945139
RightForeArm -22.664672 -0.000000 20.286995
RightHand -8.196266 -0.000000 9.009759
RightHandThumb1 -24.326973 -0.000000 -32.862282
LeftUpLeg -6.200960 -0.873629 5.379474
LeftLeg -1.919631 -0.000000 0.000000
LeftFoot -8.128862 3.250831 -18.907074
LeftToeBase 12.020230 -0.000000 -0.000000
RightUpLeg -4.714296 -15.278095 -1.940979
RightLeg 2.016228 -0.000000 -0.000000
RightFoot -7.196715 -6.649344 -12.218610
RightToeBase -0.585036 -0.000000 0.000000
3203
root -6.049365 32.879725 -4.523407 10.066625 12.491598 -0.602075
Spine -13.119929 18.794375 0.074333
Head -8.011290 -7.633651 11.136090
LeftShoulder -20.284131 22.443240 17.799189
LeftArm 7.290455 -56.207204 -47.890081
LeftForeArm -73.777162 -0.000000 7.333238
LeftHand -21.798736 -0.000000 -6.495821
LeftHandThumb1 -26.253704 0.000000 33.147579
RightShoulder -21.544451 10.894878 -19.160350
RightArm -13.968728 -6.330411 75.846938
RightForeArm -22.820763 0.000000 20.445624
RightHand -8.146903 -0.000000 8.910613
RightHandThumb1 -24.326973 -0.000000 -32.862282
LeftUpLeg -6.150142 -0.827144 5.389113
LeftLeg -1.863115 -0.000000 0.000000
LeftFoot -8.092209 3.159255 -18.730125
LeftToeBase 11.707817 -0.000000 -0.000000
RightUpLeg -4.638147 -15.217505 -1.946978
RightLeg 2.042663 -0.000000 -0.000000
RightFoot -7.214943 -6.725679 -12.175726
RightToeBase -0.562584 -0.000000 0.000000
3204
root -6.051593 32.879269 -4.516605 10.002345 12.530988 -0.605326
Spine -13.108947 18.735847 0.056194
Head -7.973669 -7.603359 11.201134
LeftShoulder -20.275414 22.403478 17.878643
LeftArm 7.135159 -56.251432 -47.437136
LeftForeArm -73.535938 -0.000000 7.613228
LeftHand -21.658020 -0.000000 -6.214319
LeftHandThumb1 -26.253704 0.000000 33.147579
RightShoulder -21.585101 10.855529 -19.124627
RightArm -13.939798 -6.266537 75.789308
RightForeArm -22.876320 -0.000000 20.622005
RightHand -8.278231 0.000000 8.794516
RightHandThumb1 -24.326973 -0.000000 -32.862282
LeftUpLeg -6.099362 -0.775501 5.393985
LeftLeg -1.840987 -0.000000 0.000000
LeftFoot -8.113673 3.077756 -18.817650
LeftToeBase 11.934597 -0.000000 -0.000000
RightUpLeg -4.580599 -15.180984 -1.955702
RightLeg 2.097796 -0.000000 -0.000000
RightFoot -7.237634 -6.799927 -12.146867
RightToeBase -0.557900 -0.000000 0.000000
3205
root -6.061860 32.879080 -4.506887 9.915128 12.595049 -0.663048
Spine -13.093582 18.681604 0.093455
Head -7.923408 -7.595177 11.256366
LeftShoulder -20.244606 22.300855 17.994257
LeftArm 7.006940 -56.407076 -47.006471
LeftForeArm -73.071591 -0.000000 7.873993
LeftHand -21.354635 -0.000000 -6.363529
LeftHandThumb1 -26.253704 0.000000 33.147579
RightShoulder -21.622493 10.838963 -19.088456
RightArm -13.958018 -6.341411 75.747402
RightForeArm -22.765727 0.000000 20.810679
RightHand -8.331365 -0.000000 8.666589
RightHandThumb1 -24.326973 -0.000000 -32.862282
LeftUpLeg -6.145012 -0.277988 5.386628
LeftLeg -1.593278 -0.000000 0.000000
LeftFoot -8.133937 2.692506 -18.412631
LeftToeBase 11.939767 -0.000000 -0.000000
RightUpLeg -4.497722 -15.143979 -1.892684
RightLeg 2.130585 -0.000000 -0.000000
RightFoot -7.219527 -6.911308 -12.166500
RightToeBase -0.553218 -0.000000 0.000000
3206
root -6.065659 32.878202 -4.500078 9.841581 12.660588 -0.678320
Spine -13.078549 18.625104 0.102290
Head -7.877836 -7.582710 11.287653
LeftShoulder -20.148594 22.176257 18.132058
LeftArm 6.685020 -56.510564 -46.459018
LeftForeArm -72.839523 -0.000000 8.256191
LeftHand -20.959068 0.000000 -5.817180
LeftHandThumb1 -26.253704 0.000000 33.147579
RightShoulder -21.648960 10.829353 -19.062902
RightArm -13.972016 -6.338694 75.696373
RightForeArm -22.763968 -0.000000 20.977228
RightHand -8.430788 -0.000000 8.428804
RightHandThumb1 -24.326973 -0.000000 -32.862282
LeftUpLeg -6.093303 -0.243880 5.407428
LeftLeg -1.559484 -0.000000 0.000000
LeftFoot -8.111399 2.584730 -18.454023
LeftToeBase 11.824570 -0.000000 -0.000000
RightUpLeg -4.424677 -15.152067 -1.881818
RightLeg 2.173025 -0.000000 -0.000000
RightFoot -7.240628 -6.971305 -12.182844
RightToeBase -0.534152 -0.000000 0.000000
3207
root -6.065607 32.877793 -4.494643 9.785948 12.736321 -0.666453
Spine -13.087379 18.554717 0.083755
Head -7.814884 -7.572473 11.325902
LeftShoulder -20.090781 22.101415 18.273510
LeftArm 6.529182 -56.679142 -46.080325
LeftForeArm -72.446307 0.000000 8.626899
LeftHand -20.925564 -0.000000 -6.178125
LeftHandThumb1 -26.253704 0.000000 33.147579
RightShoulder -21.663916 10.829105 -19.015871
RightArm -13.973138 -6.167884 75.595310
RightForeArm -22.885278 -0.000000 21.105574
RightHand -8.398640 -0.000000 8.361363
RightHandThumb1 -24.326973 -0.000000 -32.862282
LeftUpLeg -6.039232 -0.307825 5.410704
LeftLeg -1.561485 -0.000000 0.000000
LeftFoot -8.100894 2.556996 -18.498122
LeftToeBase 11.796702 -0.000000 -0.000000
RightUpLeg -4.356046 -15.163865 -1.903578
RightLeg 2.202358 -0.000000 -0.000000
RightFoot -7.263175 -7.039352 -12.164700
RightToeBase -0.519113 -0.000000 0.000000
3208
root -6.064367 32.876962 -4.489618 9.713460 12.819366 -0.646125
Spine -13.064369 18.473379 0.076782
Head -7.739329 -7.532626 11.357289
LeftShoulder -20.009369 22.054330 18.356034
LeftArm 6.360408 -56.999256 -45.659945
LeftForeArm -72.061456 -0.000000 9.071824
LeftHand -20.826289 -0.000000 -6.283810
LeftHandThumb1 -26.253704 0.000000 33.147579
RightShoulder -21.674180 10.843821 -18.995796
RightArm -13.994831 -6.076198 75.531716
RightForeArm -23.025476 0.000000 21.260515
RightHand -8.407551 0.000000 8.424732
RightHandThumb1 -24.326973 -0.000000 -32.862282
LeftUpLeg -5.962428 -0.400903 5.406383
LeftLeg -1.575678 -0.000000 0.000000
LeftFoot -8.102680 2.552805 -18.515770
LeftToeBase 11.865090 -0.000000 -0.000000
RightUpLeg -4.281334 -15.224517 -1.936131
RightLeg 2.261814 -0.000000 -0.000000
RightFoot -7.307709 -7.081220 -12.192360
RightToeBase -0.501764 -0.000000 0.000000
3209
root -6.065021 32.876458 -4.484891 9.647655 12.904081 -0.636735
Spine -13.051339 18.396298 0.083027
Head -7.660744 -7.483658 11.377762
LeftShoulder -19.935434 21.993413 18.470749
LeftArm 6.231587 -57.419624 -45.337424
LeftForeArm -71.775790 0.000000 9.587327
LeftHand -20.526377 0.000000 -6.181386
LeftHandThumb1 -26.253704 0.000000 33.147579
RightShoulder -21.681396 10.833675 -18.978866
RightArm -13.985450 -6.045729 75.482242
RightForeArm -23.047630 -0.000000 21.374982
RightHand -8.384703 -0.000000 8.577967
RightHandThumb1 -24.326973 -0.000000 -32.862282
LeftUpLeg -5.901494 -0.478785 5.413633
LeftLeg -1.579014 -0.000000 0.000000
LeftFoot -8.082136 2.534334 -18.519071
LeftToeBase 11.791627 -0.000000 -0.000000
RightUpLeg -4.201270 -15.290557 -1.955473
RightLeg 2.284980 -0.000000 -0.000000
RightFoot -7.344044 -7.077687 -12.121894
RightToeBase -0.505069 -0.000000 0.000000
3210
root -6.064398 32.875874 -4.481670 9.592200 12.994675 -0.621729
Spine -13.039774 18.311942 0.091193
Head -7.598870 -7.426548 11.400320
LeftShoulder -19.893545 21.904742 18.541869
LeftArm 6.107368 -57.677489 -44.945666
LeftForeArm -71.226844 -0.000000 10.101927
LeftHand -20.342550 -0.000000 -7.428001
LeftHandThumb1 -26.253704 0.000000 33.147579
RightShoulder -21.713932 10.818560 -18.976467
RightArm -13.947272 -6.163562 75.469042
RightForeArm -22.957513 0.000000 21.457156
RightHand -8.525888 0.000000 8.059897
RightHandThumb1 -24.326973 -0.000000 -32.862282
LeftUpLeg -5.855076 -0.577627 5.414022
LeftLeg -1.577684 -0.000000 0.000000
LeftFoot -8.082932 2.542062 -18.535001
LeftToeBase 11.804490 -0.000000 -0.000000
RightUpLeg -4.134175 -15.309026 -1.975897
RightLeg 2.312073 -0.000000 -0.000000
RightFoot -7.346400 -7.171738 -12.135731
RightToeBase -0.527249 -0.000000 0.000000
